# xmcd
#
# Track frame offsets:
# 150
# 17677
# 34296
# 53574
# 68765
# 79614
# 101988
# 119812
# 136966
# 152748
#
# Disc length: 2485 seconds
#
#
# Revision: 0
# Processed by: cddbd v1.5.2PL0 Copyright (c) Steve Scherf et al.
# Submitted via: FreeRIP 2.951 
#
DISCID=8409b30a
DTITLE=Gordie Tentrees Band - 29 Loads Of Freight
DYEAR=1900
DGENRE=Country
TTITLE0=Pay The Rent
TTITLE1=Honeywood
TTITLE2=29 Loads Of Frieght
TTITLE3=Stella
TTITLE4=Lonesome Buckaroo
TTITLE5=Dawson City
TTITLE6=Stretch Marks
TTITLE7=Dear Impression Man
TTITLE8=Your Last Day
TTITLE9=Whitewater Jam
EXTD=All Songs Gordie Tentrees\nexcept Lonnesome Buckaroo by GTB\nwww.tentrees.ca
EXTT0=
EXTT1=
EXTT2=
EXTT3=
EXTT4=
EXTT5=
EXTT6=
EXTT7=
EXTT8=
EXTT9=
PLAYORDER=
